# Blender v2.79 (sub 0) OBJ File: 'radio.blend'
# www.blender.org
o Plane
v -0.500000 0.000000 0.250000
v 0.500000 0.062500 0.187500
v -0.500000 0.000000 -0.250000
v 0.500000 0.062500 -0.187500
v -0.500000 0.875000 0.250000
v 0.500000 0.937500 0.187500
v -0.500000 0.875000 -0.250000
v 0.500000 0.937500 -0.187500
v 0.250000 1.000000 0.250000
v 0.250000 1.000000 -0.250000
v -0.375000 1.000000 0.187500
v 0.250000 1.000000 0.187500
v -0.375000 1.000000 -0.187500
v 0.250000 1.000000 -0.187500
v 0.250000 0.875000 0.250000
v 0.250000 0.875000 -0.250000
v -0.500000 0.875000 0.187500
v 0.250000 0.875000 0.187500
v -0.500000 0.875000 -0.187500
v 0.250000 0.875000 -0.187500
v 0.125000 0.875000 0.250000
v 0.125000 0.875000 -0.250000
v 0.125000 0.875000 0.187500
v 0.125000 0.875000 -0.187500
v 0.000000 0.875000 0.250000
v 0.000000 0.875000 -0.250000
v 0.000000 0.875000 0.187500
v 0.000000 0.875000 -0.187500
v 0.125000 1.500000 -0.187500
v 0.125000 1.500000 -0.250000
v 0.125000 1.500000 0.187500
v 0.125000 1.500000 0.250000
v 0.000000 1.500000 -0.187500
v 0.000000 1.500000 -0.250000
v 0.000000 1.500000 0.187500
v 0.000000 1.500000 0.250000
v 0.062500 1.500000 -0.187500
v 0.062500 1.500000 0.187500
v 0.106694 1.481694 -0.187500
v 0.106694 1.481694 0.187500
v 0.125000 1.437500 -0.187500
v 0.125000 1.437500 0.187500
v 0.106694 1.393306 -0.187500
v 0.106694 1.393306 0.187500
v 0.062500 1.375000 -0.187500
v 0.062500 1.375000 0.187500
v 0.018306 1.393306 -0.187500
v 0.018306 1.393306 0.187500
v 0.000000 1.437500 -0.187500
v 0.000000 1.437500 0.187500
v 0.018306 1.481694 -0.187500
v 0.018306 1.481694 0.187500
v 0.500000 0.000000 0.250000
v 0.500000 0.000000 -0.250000
v 0.500000 1.000000 0.250000
v 0.500000 1.000000 -0.250000
v 0.437500 0.062500 0.187500
v 0.437500 0.062500 -0.187500
v 0.437500 0.937500 0.187500
v 0.437500 0.937500 -0.187500
v 0.500000 0.125000 -0.250000
v 0.500000 0.125000 -0.187400
v 0.500000 0.187500 -0.250000
v 0.500000 0.187500 -0.187400
v 0.625000 0.125000 -0.250000
v 0.625000 0.125000 -0.187400
v 0.562500 0.187500 -0.250000
v 0.562500 0.187500 -0.187400
v 0.500000 0.812500 -0.250000
v 0.500000 0.812500 -0.187400
v 0.500000 0.875000 -0.250000
v 0.500000 0.875000 -0.187400
v 0.562500 0.812500 -0.250000
v 0.562500 0.812500 -0.187400
v 0.625000 0.875000 -0.250000
v 0.625000 0.875000 -0.187400
v 0.500000 0.125000 0.187500
v 0.500000 0.125000 0.250100
v 0.500000 0.187500 0.187500
v 0.500000 0.187500 0.250100
v 0.625000 0.125000 0.187500
v 0.625000 0.125000 0.250100
v 0.562500 0.187500 0.187500
v 0.562500 0.187500 0.250100
v 0.500000 0.812500 0.187500
v 0.500000 0.812500 0.250100
v 0.500000 0.875000 0.187500
v 0.500000 0.875000 0.250100
v 0.562500 0.812500 0.187500
v 0.562500 0.812500 0.250100
v 0.625000 0.875000 0.187500
v 0.625000 0.875000 0.250100
v 0.312500 0.125000 -0.250000
v -0.062500 0.125000 -0.250000
v 0.312500 0.500000 -0.250000
v -0.062500 0.500000 -0.250000
v 0.312500 0.125000 -0.312500
v -0.062500 0.125000 -0.312500
v 0.312500 0.500000 -0.312500
v -0.062500 0.500000 -0.312500
v 0.312500 0.125000 0.312500
v -0.062500 0.125000 0.312500
v 0.312500 0.500000 0.312500
v -0.062500 0.500000 0.312500
v 0.312500 0.125000 0.250000
v -0.062500 0.125000 0.250000
v 0.312500 0.500000 0.250000
v -0.062500 0.500000 0.250000
v 0.437500 0.312500 -0.062500
v 0.437500 0.356694 -0.044194
v 0.437500 0.375000 0.000000
v 0.437500 0.356694 0.044194
v 0.437500 0.312500 0.062500
v 0.437500 0.268306 0.044194
v 0.437500 0.250000 0.000000
v 0.437500 0.268306 -0.044194
v 0.500000 0.312500 -0.062500
v 0.500000 0.356694 -0.044194
v 0.500000 0.375000 0.000000
v 0.500000 0.356694 0.044194
v 0.500000 0.312500 0.062500
v 0.500000 0.268306 0.044194
v 0.500000 0.250000 0.000000
v 0.500000 0.268306 -0.044194
vt 0.833333 0.800000
vt 1.000000 0.400000
vt 1.000000 0.800000
vt 0.541667 0.825000
vt 0.520833 0.525000
vt 0.541667 0.525000
vt 0.666667 0.375000
vt 0.645833 0.025000
vt 0.666667 0.025000
vt 0.479167 0.775000
vt 0.479167 0.525000
vt 0.354167 0.775000
vt 0.312500 0.525000
vt 0.354167 0.525000
vt 0.520833 0.500000
vt 0.479167 0.500000
vt 0.312500 0.825000
vt 0.291667 0.525000
vt 0.312500 0.500000
vt 0.354167 0.500000
vt 0.479167 0.500000
vt 0.354167 0.500000
vt 0.333333 0.400000
vt 0.354167 0.750000
vt 0.541667 0.500000
vt 0.500000 0.400000
vt 0.833333 0.400000
vt 0.333333 0.500000
vt 0.291667 0.500000
vt 0.833333 0.950000
vt 0.541667 0.925000
vt 0.541667 0.825000
vt 0.770833 0.000000
vt 0.729167 0.025000
vt 0.729167 0.000000
vt 0.854167 -0.000000
vt 0.895833 0.025000
vt 0.854167 0.025000
vt 0.729167 0.275000
vt 0.770833 0.300000
vt 0.729167 0.300000
vt 0.895833 0.275000
vt 0.854167 0.300000
vt 0.854167 0.275000
vt 0.708333 0.025000
vt 0.666667 0.275000
vt 0.666667 0.025000
vt 0.916667 0.275000
vt 0.916667 0.025000
vt 0.833333 0.025000
vt 0.833333 0.275000
vt 0.791667 0.025000
vt 0.770833 0.025000
vt 0.791667 0.025000
vt 0.770833 0.275000
vt 0.708333 0.275000
vt 0.354167 0.025000
vt 0.500000 0.000000
vt 0.479167 0.025000
vt 0.479167 0.375000
vt 0.354167 0.375000
vt 0.333333 -0.000000
vt 0.520833 0.375000
vt 0.520833 0.025000
vt 0.645833 -0.000000
vt 0.520833 -0.000000
vt 0.500000 0.025000
vt 0.500000 0.375000
vt 0.520833 0.400000
vt 0.645833 0.375000
vt 0.645833 0.400000
vt 0.333333 0.025000
vt 0.312500 -0.000000
vt 0.333333 -0.000000
vt 0.270833 -0.000000
vt 0.250000 0.025000
vt 0.250000 -0.000000
vt 0.291667 -0.000000
vt 0.270833 0.050000
vt 0.312500 0.025000
vt 0.291667 0.050000
vt 0.312500 0.400000
vt 0.333333 0.375000
vt 0.333333 0.400000
vt 0.291667 0.400000
vt 0.312500 0.375000
vt 0.270833 0.350000
vt 0.270833 0.400000
vt 0.250000 0.375000
vt 0.250000 0.075000
vt 0.333333 0.325000
vt 0.312500 0.075000
vt 0.333333 0.075000
vt 0.312500 0.325000
vt 0.250000 0.025000
vt 0.229167 0.000000
vt 0.250000 0.000000
vt 0.187500 0.000000
vt 0.166667 0.025000
vt 0.166667 0.000000
vt 0.208333 0.000000
vt 0.187500 0.050000
vt 0.229167 0.025000
vt 0.208333 0.050000
vt 0.229167 0.400000
vt 0.250000 0.375000
vt 0.250000 0.400000
vt 0.208333 0.400000
vt 0.229167 0.375000
vt 0.187500 0.350000
vt 0.187500 0.400000
vt 0.166667 0.375000
vt 0.166667 0.075000
vt 0.250000 0.325000
vt 0.229167 0.075000
vt 0.250000 0.075000
vt 0.229167 0.325000
vt 0.020833 0.825000
vt 0.145833 0.800000
vt 0.145833 0.825000
vt 0.145833 0.825000
vt 0.020833 0.975000
vt 0.020833 0.825000
vt 0.145833 0.800000
vt 0.020833 0.800000
vt -0.000000 0.825000
vt -0.000000 0.975000
vt 0.020833 1.000000
vt 0.145833 0.975000
vt 0.145833 1.000000
vt 0.166667 0.975000
vt 0.166667 0.825000
vt 0.166667 0.975000
vt 0.145833 0.975000
vt 0.020833 1.000000
vt 0.020833 0.975000
vt 0.000000 0.825000
vt 0.041666 0.248963
vt 0.021698 0.225000
vt 0.041666 0.201038
vt 0.354167 0.800000
vt 0.479167 0.750000
vt 0.479167 0.800000
vt 0.520833 0.825000
vt 0.291667 0.825000
vt 0.500000 0.500000
vt 0.541667 0.800000
vt 0.291667 0.800000
vt 0.000000 0.800000
vt -0.000000 0.400000
vt 0.541667 0.950000
vt 0.895833 -0.000000
vt 0.895833 0.300000
vt 0.791667 0.275000
vt 0.791667 0.275000
vt 0.291667 0.350000
vt 0.250000 0.400000
vt 0.250000 0.325000
vt 0.208333 0.350000
vt 0.166667 0.400000
vt 0.166667 0.325000
vt 0.020833 0.800000
vt 0.166667 0.825000
vt 0.145833 1.000000
vt 0.000000 0.975000
vt 0.061635 0.225000
vt 0.055786 0.241944
vt 0.027547 0.241944
vt 0.027547 0.208056
vt 0.055786 0.208056
vt 0.041667 0.100000
vt 0.166667 0.075000
vt 0.166667 0.100000
vt 0.041667 0.075000
vt 0.166667 0.050000
vt 0.041667 0.050000
vt 0.166667 0.025000
vt 0.041667 0.025000
vt 0.166667 -0.000000
vt 0.041667 0.200000
vt 0.166667 0.175000
vt 0.166667 0.200000
vt 0.041667 0.175000
vt 0.166667 0.150000
vt 0.041667 0.150000
vt 0.166667 0.125000
vt 0.041667 0.125000
vt 0.041667 0.050000
vt 0.020833 0.025000
vt 0.041667 0.025000
vt 0.041667 0.200000
vt 0.020833 0.175000
vt 0.041667 0.175000
vt 0.041667 0.150000
vt 0.020833 0.125000
vt 0.041667 0.125000
vt 0.041667 0.100000
vt 0.020833 0.075000
vt 0.041667 0.075000
vt 0.020833 -0.000000
vt 0.041667 -0.000000
vt 0.020833 0.150000
vt 0.020833 0.100000
vt 0.020833 0.050000
vt 0.041667 -0.000000
vt 0.020833 0.200000
vn 0.0000 -1.0000 0.0000
vn 0.0000 1.0000 0.0000
vn 0.0000 0.0000 1.0000
vn 0.0000 0.0000 -1.0000
vn -1.0000 0.0000 0.0000
vn 1.0000 0.0000 0.0000
vn -0.7071 0.7071 0.0000
vn 0.7071 0.7071 0.0000
vn 0.7071 -0.7071 0.0000
vn -0.7071 -0.7071 0.0000
vn 0.0000 -0.7071 -0.7071
vn 0.0000 -0.7071 0.7071
vn 0.0000 0.7071 0.7071
vn 0.0000 0.7071 -0.7071
s off
f 3/1/1 53/2/1 1/3/1
f 7/4/2 20/5/2 16/6/2
f 8/7/3 58/8/3 4/9/3
f 20/5/4 13/10/4 14/11/4
f 11/12/3 18/13/3 12/14/3
f 16/15/5 14/11/5 10/16/5
f 17/17/2 15/18/2 18/13/2
f 12/14/5 15/19/5 9/20/5
f 14/21/2 12/22/2 55/23/2
f 14/21/2 11/24/2 12/22/2
f 16/25/4 56/26/4 54/27/4
f 55/23/3 9/28/3 15/29/3
f 1/30/5 17/31/5 19/32/5
f 25/33/1 23/34/1 21/35/1
f 24/36/1 26/37/1 22/38/1
f 31/39/2 36/40/2 32/41/2
f 34/42/2 29/43/2 30/44/2
f 34/42/4 22/38/4 26/37/4
f 21/45/3 36/46/3 25/47/3
f 33/48/5 26/37/5 28/49/5
f 30/44/6 24/50/6 22/38/6
f 29/51/3 28/52/3 24/50/3
f 27/53/4 31/39/4 23/34/4
f 25/54/5 35/55/5 27/53/5
f 23/34/6 32/56/6 21/45/6
f 2/57/6 54/58/6 4/59/6
f 8/60/6 55/23/6 6/61/6
f 4/59/6 56/26/6 8/60/6
f 6/61/6 53/62/6 2/57/6
f 58/8/6 59/63/6 57/64/6
f 4/65/2 57/64/2 2/66/2
f 2/67/4 59/63/4 6/68/4
f 6/69/1 60/70/1 8/71/1
f 68/72/2 63/73/2 64/74/2
f 62/75/3 68/76/3 64/77/3
f 61/78/1 66/79/1 62/75/1
f 61/78/4 67/80/4 65/81/4
f 69/82/1 74/83/1 70/84/1
f 71/85/4 73/86/4 69/82/4
f 76/87/2 71/85/2 72/88/2
f 72/88/3 74/89/3 76/87/3
f 76/87/3 68/90/3 66/79/3
f 74/91/5 67/92/5 68/93/5
f 73/94/4 65/81/4 67/92/4
f 65/81/6 76/87/6 66/79/6
f 84/95/2 79/96/2 80/97/2
f 78/98/3 84/99/3 80/100/3
f 77/101/1 82/102/1 78/98/1
f 77/101/4 83/103/4 81/104/4
f 85/105/1 90/106/1 86/107/1
f 87/108/4 89/109/4 85/105/4
f 92/110/2 87/108/2 88/111/2
f 88/111/3 90/112/3 92/110/3
f 92/110/3 84/113/3 82/102/3
f 90/114/5 83/115/5 84/116/5
f 89/117/4 81/104/4 83/115/4
f 81/104/6 92/110/6 82/102/6
f 102/118/1 105/119/1 101/120/1
f 98/121/4 99/122/4 97/123/4
f 94/124/1 97/123/1 93/125/1
f 93/126/6 99/122/6 95/127/6
f 95/128/2 100/129/2 96/130/2
f 96/131/5 98/121/5 94/132/5
f 101/120/6 107/133/6 103/134/6
f 103/134/2 108/135/2 104/136/2
f 104/136/5 106/137/5 102/118/5
f 101/120/3 104/136/3 102/118/3
f 119/138/6 121/139/6 123/140/6
f 17/141/7 13/142/7 19/143/7
f 3/1/1 54/27/1 53/2/1
f 7/4/2 19/144/2 20/5/2
f 8/7/3 60/70/3 58/8/3
f 20/5/4 19/144/4 13/10/4
f 11/12/3 17/17/3 18/13/3
f 16/15/5 20/5/5 14/11/5
f 17/17/2 5/145/2 15/18/2
f 12/14/5 18/13/5 15/19/5
f 12/22/2 9/28/2 55/23/2
f 55/23/2 56/26/2 14/21/2
f 56/26/2 10/146/2 14/21/2
f 14/21/2 13/142/2 11/24/2
f 54/27/4 3/1/4 16/25/4
f 3/1/4 7/147/4 16/25/4
f 16/25/4 10/146/4 56/26/4
f 5/148/3 1/149/3 15/29/3
f 1/149/3 53/150/3 15/29/3
f 53/150/3 55/23/3 15/29/3
f 7/147/5 3/1/5 19/32/5
f 3/1/5 1/30/5 19/32/5
f 1/30/5 5/151/5 17/31/5
f 25/33/1 27/53/1 23/34/1
f 24/36/1 28/152/1 26/37/1
f 31/39/2 35/55/2 36/40/2
f 34/42/2 33/153/2 29/43/2
f 34/42/4 30/44/4 22/38/4
f 21/45/3 32/56/3 36/46/3
f 33/48/5 34/42/5 26/37/5
f 30/44/6 29/51/6 24/50/6
f 29/51/3 33/154/3 28/52/3
f 27/53/4 35/55/4 31/39/4
f 25/54/5 36/155/5 35/55/5
f 23/34/6 31/39/6 32/56/6
f 2/57/6 53/62/6 54/58/6
f 8/60/6 56/26/6 55/23/6
f 4/59/6 54/58/6 56/26/6
f 6/61/6 55/23/6 53/62/6
f 58/8/6 60/70/6 59/63/6
f 4/65/2 58/8/2 57/64/2
f 2/67/4 57/64/4 59/63/4
f 6/69/1 59/63/1 60/70/1
f 68/72/2 67/80/2 63/73/2
f 62/75/3 66/79/3 68/76/3
f 61/78/1 65/81/1 66/79/1
f 61/78/4 63/73/4 67/80/4
f 69/82/1 73/86/1 74/83/1
f 71/85/4 75/156/4 73/86/4
f 76/87/2 75/156/2 71/85/2
f 72/88/3 70/157/3 74/89/3
f 76/87/3 74/158/3 68/90/3
f 74/91/5 73/94/5 67/92/5
f 73/94/4 75/156/4 65/81/4
f 65/81/6 75/156/6 76/87/6
f 84/95/2 83/103/2 79/96/2
f 78/98/3 82/102/3 84/99/3
f 77/101/1 81/104/1 82/102/1
f 77/101/4 79/96/4 83/103/4
f 85/105/1 89/109/1 90/106/1
f 87/108/4 91/159/4 89/109/4
f 92/110/2 91/159/2 87/108/2
f 88/111/3 86/160/3 90/112/3
f 92/110/3 90/161/3 84/113/3
f 90/114/5 89/117/5 83/115/5
f 89/117/4 91/159/4 81/104/4
f 81/104/6 91/159/6 92/110/6
f 102/118/1 106/162/1 105/119/1
f 98/121/4 100/129/4 99/122/4
f 94/124/1 98/121/1 97/123/1
f 93/126/6 97/123/6 99/122/6
f 95/128/2 99/122/2 100/129/2
f 96/131/5 100/129/5 98/121/5
f 101/120/6 105/163/6 107/133/6
f 103/134/2 107/164/2 108/135/2
f 104/136/5 108/165/5 106/137/5
f 101/120/3 103/134/3 104/136/3
f 117/166/6 118/167/6 119/138/6
f 119/138/6 120/168/6 121/139/6
f 121/139/6 122/169/6 123/140/6
f 123/140/6 124/170/6 117/166/6
f 117/166/6 119/138/6 123/140/6
f 17/141/7 11/24/7 13/142/7
s 1
f 38/171/2 39/172/8 37/173/2
f 40/174/8 41/175/6 39/172/8
f 42/176/6 43/177/9 41/175/6
f 44/178/9 45/179/1 43/177/9
f 46/180/1 47/181/10 45/182/1
f 48/183/10 49/184/5 47/181/10
f 50/185/5 51/186/7 49/184/5
f 52/187/7 37/173/2 51/186/7
f 109/188/4 124/189/11 116/190/11
f 115/191/1 122/192/12 114/193/12
f 113/194/3 120/195/13 112/196/13
f 111/197/2 118/198/14 110/199/14
f 116/190/11 123/200/1 115/201/1
f 114/193/12 121/202/3 113/194/3
f 112/196/13 119/203/2 111/197/2
f 110/199/14 117/204/4 109/188/4
f 38/171/2 40/174/8 39/172/8
f 40/174/8 42/176/6 41/175/6
f 42/176/6 44/178/9 43/177/9
f 44/178/9 46/205/1 45/179/1
f 46/180/1 48/183/10 47/181/10
f 48/183/10 50/185/5 49/184/5
f 50/185/5 52/187/7 51/186/7
f 52/187/7 38/171/2 37/173/2
f 109/188/4 117/204/4 124/189/11
f 115/191/1 123/206/1 122/192/12
f 113/194/3 121/202/3 120/195/13
f 111/197/2 119/203/2 118/198/14
f 116/190/11 124/189/11 123/200/1
f 114/193/12 122/192/12 121/202/3
f 112/196/13 120/195/13 119/203/2
f 110/199/14 118/198/14 117/204/4
